<svg xmlns="http://www.w3.org/2000/svg" viewBox="0 0 512 512"><defs><style>.cls-1{fill:#fff;}</style></defs><title>Asset 3</title><g id="Layer_2" data-name="Layer 2"><g id="Layer_1-2" data-name="Layer 1"><rect width="512" height="512"/><path class="cls-1" d="M350,250.85l-29.61,29.69A54.34,54.34,0,0,1,287.29,378l-64.1.08-41.72,41.84,105.88-.13A96.09,96.09,0,0,0,350,250.85Z"/><path class="cls-1" d="M236.82,90.1l-21.24,0,0,41.78,21.21,0a54.42,54.42,0,0,1,38.48,92.84l2.66,2.65h0l-2.66-2.65-92.77,93-.19-150-41.78.06.31,250.91,164-164.49h0A96.21,96.21,0,0,0,236.86,90.1"/></g></g></svg>