<svg xmlns="http://www.w3.org/2000/svg" viewBox="0 0 21.35 29"><defs><style>.cls-1{fill:#fff;}</style></defs><title>Asset 1</title><g id="Layer_2" data-name="Layer 2"><g id="Layer_1-2" data-name="Layer 1"><path class="cls-1" d="M18.42,14.14l-2.61,2.61a4.74,4.74,0,0,1,1.87,3.77,4.79,4.79,0,0,1-4.78,4.79H7.26L3.6,29h9.31a8.45,8.45,0,0,0,5.51-14.85Z"/><path class="cls-1" d="M8.46,0H6.6V3.68H8.46a4.79,4.79,0,0,1,3.39,8.17l.23.23h0l-.23-.23L3.69,20l0-13.19H0L0,28.9,14.45,14.43h0A8.45,8.45,0,0,0,8.47,0"/></g></g></svg>